<?xml version="1.0" encoding="utf-8"?>
<!-- Generator: Adobe Illustrator 16.0.4, SVG Export Plug-In . SVG Version: 6.00 Build 0)  -->
<!DOCTYPE svg PUBLIC "-//W3C//DTD SVG 1.1//EN" "http://www.w3.org/Graphics/SVG/1.1/DTD/svg11.dtd">
<svg version="1.1" id="Layer_1" xmlns="http://www.w3.org/2000/svg" xmlns:xlink="http://www.w3.org/1999/xlink" x="0px" y="0px"
	 viewBox="0 0 72 61" enable-background="new 0 0 72 61" xml:space="preserve">
<path fill="#E9E9E9" d="M65.453,8.916V0.005C40.112,0.005,36.226,8.333,36,8.873c-0.226-0.54-4.113-8.868-29.454-8.868v8.911
	C4.484,8.79,2.305,8.719,0,8.719v45.937c0,0,19.906-2.148,29.789,3.084c1.676,0.888,3.479,3.242,6.212,3.256
	s4.543-2.374,6.224-3.262C52.111,52.507,72,54.655,72,54.655V8.719C69.695,8.719,67.516,8.79,65.453,8.916z M9.821,3.323
	c19.396,0.606,23.005,6.544,23.177,6.854l0.745,1.78v39.659c-6.924-3.964-17.219-4.675-23.621-4.675c-0.102,0-0.203,0-0.302,0V3.323
	z M62.18,3.323v43.619c-0.1,0-0.199,0-0.303,0c-6.447,0-16.848,0.721-23.77,4.763V12.319l0.895-2.143
	C39.172,9.873,42.773,3.929,62.18,3.323z"/>
</svg>
