<?xml version="1.0" encoding="utf-8"?>
<!-- Generator: Adobe Illustrator 17.1.0, SVG Export Plug-In . SVG Version: 6.00 Build 0)  -->
<!DOCTYPE svg PUBLIC "-//W3C//DTD SVG 1.1//EN" "http://www.w3.org/Graphics/SVG/1.1/DTD/svg11.dtd">
<svg version="1.1" id="Layer_1" xmlns="http://www.w3.org/2000/svg" xmlns:xlink="http://www.w3.org/1999/xlink" x="0px" y="0px"
	 viewBox="0 0 150 150" enable-background="new 0 0 150 150" xml:space="preserve">
<path fill="#E9E9E9" d="M75,0C33.6,0,0,33.6,0,75c0,41.4,33.6,75,75,75c41.4,0,75-33.6,75-75C150,33.6,116.4,0,75,0z M79,142.5v-13
	l32.5-16.5c0.8-0.4,1.3-1.2,1.3-2.1v-7.5c3-1.1,5.1-4.1,4.7-7.4c-0.4-3.9-3.9-6.7-7.8-6.3c-3.9,0.4-6.7,3.9-6.3,7.8
	c0.3,2.8,2.2,5.1,4.7,6v6L79,124.2v-12.1l12.9-5.9c0.8-0.4,1.3-1.2,1.3-2.1l0-20.2L117,70.5c0.7-0.4,1.2-1.2,1.2-2v-5.6
	c3-1,5.1-4.1,4.7-7.4c-0.4-3.9-3.9-6.7-7.8-6.3c-3.9,0.4-6.7,3.9-6.3,7.8c0.3,2.8,2.2,5.1,4.7,6v4.3L89.7,80.5
	c-0.7,0.4-1.2,1.2-1.2,2l0,20.1L79,107V63.4l20-9.8c0.8-0.4,1.3-1.2,1.3-2.1v-7.5c3-1.1,5.1-4.1,4.7-7.4c-0.4-3.9-3.9-6.7-7.8-6.3
	c-3.9,0.4-6.7,3.9-6.3,7.8c0.3,2.8,2.2,5.1,4.7,6v6L79,58.2V33c3-1.1,5.1-4.1,4.7-7.4c-0.4-3.9-3.9-6.7-7.8-6.3
	c-3.9,0.4-6.7,3.9-6.3,7.8c0.3,2.8,2.2,5.1,4.7,6v41.1l-11.8-6.2V49.3c0-0.7-0.3-1.4-0.9-1.8l-8.1-6.2c0.4-1.1,0.6-2.2,0.5-3.4
	c-0.4-3.9-3.9-6.7-7.8-6.3c-3.9,0.4-6.7,3.9-6.3,7.8c0.4,3.9,3.9,6.7,7.8,6.3c1-0.1,1.9-0.4,2.7-0.9l7.4,5.7v18.9
	c0,0.9,0.5,1.7,1.2,2.1l15.2,8v15.1L49,82.7l0.3-9.2c0-0.9-0.5-1.7-1.3-2.2l-11.6-6c0.2-0.7,0.2-1.5,0.2-2.3
	c-0.4-3.9-3.9-6.7-7.8-6.3c-3.9,0.4-6.7,3.9-6.3,7.8c0.4,3.9,3.9,6.7,7.8,6.3c1.4-0.1,2.7-0.7,3.7-1.5l10.7,5.5l-0.3,9.2
	c0,0.9,0.5,1.8,1.3,2.2l28.7,13.3v10.8c0,0.2,0,0.4,0,0.6v31.6c-2.4,0-4.9-0.2-7.2-0.5v-27.2c0-0.9-0.5-1.7-1.4-2.1l-18-8.3
	c0-0.5,0-0.9,0-1.4c-0.4-3.9-3.9-6.7-7.8-6.3c-3.9,0.4-6.7,3.9-6.3,7.8c0.4,3.9,3.9,6.7,7.8,6.3c1.7-0.2,3.3-1,4.4-2.1l16.7,7.7v25
	c-31.3-5.9-55-33.4-55-66.4C7.4,37.7,37.7,7.4,75,7.4s67.6,30.3,67.6,67.6C142.6,110.9,114.4,140.4,79,142.5z"/>
</svg>
